<svg width="90" height="90" viewBox="0 0 90 90" fill="none" xmlns="http://www.w3.org/2000/svg">
<rect width="90" height="90" rx="20" fill="#D1F4FF"/>
<path d="M41.0798 19.7C37.7198 20.3 36.7998 20.82 36.7998 22.06C36.7998 22.7 37.5798 23.6 38.1598 23.6C38.3598 23.6 39.2398 23.42 40.1198 23.18C42.1798 22.66 45.6398 22.48 47.8198 22.78C52.2798 23.44 56.2598 25.44 59.4198 28.58C61.8198 30.98 63.4398 33.68 64.4798 37C64.7798 37.94 65.1598 38.84 65.3198 39.02C65.7798 39.54 66.5198 39.64 67.1798 39.32C68.1998 38.78 68.2398 38.08 67.3998 35.58C64.6198 27.26 57.5998 21.22 48.9198 19.7C46.8198 19.34 43.0598 19.34 41.0798 19.7Z" fill="#05001A"/>
<path d="M32.8201 22.92C32.1201 23.82 32.3401 24.84 33.3401 25.36C33.9801 25.72 34.3001 25.66 34.9801 25.08C36.1401 24.1 35.5201 22.4 34.0001 22.4C33.4001 22.4 33.1401 22.52 32.8201 22.92Z" fill="#05001A"/>
<path d="M41.7601 25.32C38.2601 25.94 35.3601 27.48 32.5401 30.18C30.7601 31.9 30.4401 32.7 31.2201 33.68C31.5201 34.06 31.8001 34.2 32.3401 34.2C32.9601 34.2 33.2801 33.98 34.7801 32.54C36.7401 30.68 38.1201 29.8 40.1801 29.08C42.4401 28.3 44.4601 28.08 47.0201 28.4C49.2001 28.66 49.2201 28.66 49.7001 28.2C50.3601 27.58 50.3801 26.56 49.7401 25.92C48.8801 25.06 44.8601 24.76 41.7601 25.32Z" fill="#7230FF"/>
<path d="M29.5 25.38C29.28 25.48 28.52 26.16 27.84 26.88C21.12 34.06 19.52 44.3 23.68 53.32C24.38 54.8 24.8 55.2 25.7 55.2C26.34 55.2 27.2 54.38 27.2 53.76C27.2 53.5 26.84 52.46 26.4 51.42C25.3 48.9 24.8 46.76 24.66 44C24.38 38.38 26.4 33.04 30.32 29C31.52 27.76 31.88 27.02 31.62 26.34C31.3 25.5 30.3 25.06 29.5 25.38Z" fill="#05001A"/>
<path d="M51.9801 27.98C51.6601 28.3 51.4001 28.72 51.4001 28.9C51.4001 29.38 51.9401 30.34 52.3001 30.48C54.0201 31.14 55.3801 29.16 54.1001 27.9C53.4401 27.24 52.7001 27.26 51.9801 27.98Z" fill="#05001A"/>
<path d="M56.2398 30.5C55.1398 30.98 55.0798 32.18 56.0998 33.4C59.5798 37.56 60.4398 43.64 58.2798 48.58C58.0198 49.16 57.7998 49.9 57.7998 50.2C57.7998 51.44 59.5598 52.06 60.4798 51.14C61.3598 50.26 62.4398 46.76 62.6998 43.9C63.0798 39.8 61.3398 34.54 58.5198 31.28C57.7198 30.36 57.1198 30.14 56.2398 30.5Z" fill="#05001A"/>
<path d="M42.8401 35.4999C39.9201 36.9799 39.2801 40.8599 41.6001 43.1599C42.6601 44.2399 43.3401 44.4999 45.0001 44.4999C46.7001 44.4999 47.3801 44.2199 48.4801 43.0799C50.5801 40.9199 50.1001 37.2999 47.5201 35.7199C46.1201 34.8399 44.3201 34.7599 42.8401 35.4999Z" fill="#05001A"/>
<path d="M28.8999 35.7C27.8599 36.72 28.5599 38.4 30.0399 38.4C30.7199 38.4 31.5999 37.62 31.5999 37.02C31.5999 35.48 29.9199 34.66 28.8999 35.7Z" fill="#05001A"/>
<path d="M27.7799 40.5199C27.3399 40.9999 27.2999 41.1799 27.3199 43.0599C27.3599 46.0799 28.4599 50.0799 29.5199 51.1399C30.1399 51.7599 31.1799 51.7599 31.7599 51.1399C32.3199 50.5399 32.3199 50.0199 31.6999 48.4799C30.8999 46.4999 30.6199 45.0599 30.5399 42.8199C30.4999 40.9399 30.4599 40.7199 30.0199 40.3799C29.3399 39.8199 28.3799 39.8799 27.7799 40.5199Z" fill="#05001A"/>
<path d="M65.8199 41.72C65.2399 42.46 65.2999 43.12 65.9799 43.82C66.6399 44.48 66.9799 44.52 67.7799 44.1C68.4199 43.78 68.5999 43.44 68.5999 42.62C68.5999 41.3 66.6399 40.68 65.8199 41.72Z" fill="#05001A"/>
<path d="M65.86 46.2C65.3 46.42 65.14 46.76 64.64 48.6C63.1 54.26 58.94 59.08 53.44 61.64C51.24 62.66 51 62.88 51 63.82C51 64.7 51.7 65.4 52.58 65.4C53.4 65.4 57.3 63.38 59.12 62.02C63.18 59 66.3 54.48 67.72 49.64C68.34 47.5 68.32 47.3 67.62 46.58C67.02 45.98 66.62 45.9 65.86 46.2Z" fill="#7230FF"/>
<path d="M43.1401 46.4C41.7401 46.76 40.9001 47.36 37.0601 50.82C34.0801 53.48 33.2601 54.32 33.4201 54.52C33.8601 55.06 35.3401 55.6 36.3801 55.6C37.6001 55.6 38.2601 55.3 39.8801 53.98C40.5401 53.44 41.1201 53.04 41.1601 53.1C41.2401 53.18 41.9801 64.58 42.0001 65.94V66.6H45.0001H48.0001V65.94C48.0201 64.58 48.7601 53.18 48.8401 53.1C48.8801 53.04 49.4601 53.44 50.1201 53.98C51.7401 55.3 52.4001 55.6 53.6201 55.6C54.6601 55.6 56.1401 55.06 56.5801 54.52C56.9001 54.14 49.5401 47.56 48.0401 46.86C46.8401 46.3 44.4401 46.08 43.1401 46.4Z" fill="#FF7A00"/>
<path d="M27.2998 56.4999C26.5998 57.1799 26.6198 58.22 27.3198 58.78C28.2198 59.5 29.2198 59.3 29.7198 58.36C30.5598 56.7399 28.5598 55.2199 27.2998 56.4999Z" fill="#05001A"/>
<path d="M30.9201 59.62C30.5201 59.94 30.4001 60.2 30.4001 60.8C30.4001 61.46 30.5201 61.68 31.2401 62.28C32.2801 63.18 36.6801 65.4 37.4001 65.4C38.3001 65.4 39.0001 64.7 39.0001 63.82C39.0001 62.88 38.7601 62.66 36.6001 61.66C35.6601 61.22 34.3201 60.5 33.6201 60.04C32.1801 59.1 31.6801 59.02 30.9201 59.62Z" fill="#05001A"/>
</svg>
