<svg width="90" height="90" viewBox="0 0 90 90" fill="none" xmlns="http://www.w3.org/2000/svg">
<rect width="90" height="90" rx="20" fill="#CCD4FF"/>
<g clip-path="url(#clip0_1_376)">
<path d="M42.9217 17.063C42.412 17.1833 41.954 17.5498 41.7249 18.025C41.5932 18.2884 41.5932 18.2884 41.576 21.6152L41.5646 24.942L40.9176 25.0737C38.2607 25.6005 35.3977 26.8602 33.1245 28.4921C28.9159 31.5269 25.9785 36.1019 25.0108 41.1465L24.9478 41.5015L21.6153 41.5187L18.2885 41.5359L18.0079 41.6733C17.6472 41.8508 17.3437 42.1543 17.1662 42.515L17.0288 42.7956V45.0001C17.0288 47.1874 17.0288 47.2046 17.1605 47.4737C17.3323 47.8172 17.6701 48.1551 18.0194 48.3269L18.2885 48.4643L21.6153 48.4815L24.9478 48.4986L25.0108 48.8536C26.03 54.1502 29.2194 58.9314 33.7486 61.9318C35.9417 63.3804 38.4726 64.4397 40.929 64.9322L41.5646 65.0581V68.3048C41.5646 71.1334 41.576 71.58 41.6562 71.8205C41.7822 72.187 42.2288 72.6622 42.6067 72.834C42.9102 72.9714 42.9159 72.9714 45.0574 72.9714C47.199 72.9714 47.2047 72.9714 47.5082 72.834C47.8861 72.6622 48.3327 72.187 48.4587 71.8205C48.5388 71.58 48.5503 71.1334 48.5503 68.3048V65.0581L49.1859 64.9322C53.0051 64.1706 56.6869 62.178 59.5155 59.3436C62.3785 56.4749 64.3425 52.7874 65.1041 48.8479L65.1728 48.4929H68.3908C71.2538 48.4929 71.6488 48.4815 71.9122 48.3956C72.2844 48.2753 72.7253 47.886 72.9315 47.4966L73.0861 47.2046V45.0001V42.7956L72.9315 42.4978C72.7368 42.1314 72.439 41.8393 72.0897 41.6675L71.8264 41.5359L68.4996 41.5187L65.167 41.5015L65.0983 41.1465C64.3482 37.2414 62.3957 33.5596 59.5728 30.708C57.9122 29.0303 56.2002 27.805 54.0758 26.7628C52.4325 25.9555 50.9495 25.4344 49.2947 25.0909L48.5503 24.942V21.6954C48.5503 18.8667 48.5388 18.4201 48.4587 18.1796C48.3327 17.8132 47.8861 17.3379 47.5082 17.1661C47.2104 17.0287 47.1818 17.0287 45.172 17.0172C44.0554 17.0115 43.0419 17.0344 42.9217 17.063ZM41.576 33.4451L41.5932 36.726L41.7249 36.9894C41.9024 37.3559 42.2116 37.6594 42.5895 37.8369L42.9102 37.9857H45.0574H47.2047L47.5253 37.8369C47.9032 37.6594 48.2124 37.3559 48.39 36.9894L48.5217 36.726L48.5388 33.4451C48.5503 30.5477 48.5617 30.1698 48.6419 30.1698C48.7793 30.1698 49.7012 30.4389 50.2795 30.6508C51.8427 31.2177 53.32 32.0479 54.6771 33.1301C55.2955 33.6226 56.4865 34.8078 56.9904 35.4377C58.2214 36.9837 59.2636 38.9935 59.7789 40.8144C59.8705 41.1408 59.945 41.4328 59.945 41.4557C59.945 41.4843 58.4562 41.5129 56.6411 41.5187L53.3315 41.5359L53.0394 41.6905C52.6615 41.8909 52.3065 42.2917 52.1748 42.6696C52.0832 42.933 52.0718 43.1907 52.0718 45.0001C52.0718 46.8095 52.0832 47.0671 52.1748 47.3305C52.3122 47.7256 52.6615 48.1093 53.0623 48.304L53.3887 48.4643L56.6697 48.4815C58.4963 48.4872 59.945 48.5215 59.945 48.5444C59.945 48.6761 59.5212 50.016 59.3151 50.5428C58.794 51.877 57.8951 53.4344 56.9904 54.5624C56.4808 55.198 55.2955 56.3833 54.6771 56.8757C53.383 57.9064 51.7855 58.8054 50.2795 59.3493C49.7012 59.5612 48.7793 59.8303 48.6419 59.8303C48.5617 59.8303 48.5503 59.4524 48.5388 56.5551L48.5217 53.2741L48.39 53.0107C48.2124 52.6442 47.9032 52.3408 47.5253 52.1633L47.2047 52.0144H45.0574H42.9102L42.5838 52.169C42.1658 52.3637 41.828 52.7129 41.6791 53.108C41.5703 53.4115 41.5646 53.5375 41.5646 56.6238C41.5646 59.5727 41.5589 59.8303 41.4673 59.8303C41.4157 59.8303 41.0722 59.7387 40.7 59.6299C38.8963 59.0974 37.2014 58.2271 35.6783 57.0532C34.911 56.4635 33.6914 55.2725 33.1245 54.5624C31.8877 53.0107 30.8513 51.0066 30.336 49.1858C30.2444 48.8594 30.1699 48.5673 30.1699 48.5444C30.1699 48.5158 31.6472 48.4872 33.4509 48.4815L36.7262 48.4643L37.0525 48.304C37.4533 48.1093 37.8026 47.7256 37.9401 47.3305C38.0317 47.0671 38.0431 46.8095 38.0431 45.0001C38.0431 43.1907 38.0317 42.933 37.9401 42.6696C37.8084 42.2917 37.4533 41.8909 37.0754 41.6905L36.7834 41.5359L33.4795 41.5187C31.6587 41.5129 30.1699 41.4843 30.1699 41.4557C30.1699 41.3183 30.5421 40.1158 30.7654 39.5432C32.466 35.1399 36.0677 31.796 40.6198 30.3931C40.9977 30.2729 41.3642 30.1755 41.4329 30.1755L41.5646 30.1698L41.576 33.4451Z" fill="#05001A"/>
<path d="M41.7248 18.0251C41.9538 17.5498 42.4119 17.1834 42.9215 17.0631C43.0418 17.0345 44.0553 17.0116 45.1718 17.0173L45.179 17.0174C47.1817 17.0288 47.2106 17.0289 47.508 17.1662C47.8859 17.338 48.3326 17.8132 48.4585 18.1797C48.5387 18.4202 48.5501 18.8668 48.5501 21.6955V24.9421L48.6418 30.1699C48.5616 30.1699 48.5501 30.5478 48.5387 33.4451L48.5215 36.7261L48.3898 36.9895C48.2123 37.356 47.9031 37.6595 47.5252 37.837L47.2045 37.9858H45.0573H42.9101L42.5894 37.837C42.2115 37.6595 41.9023 37.356 41.7248 36.9895L41.5931 36.7261L41.5759 33.4451L41.5645 30.1699V24.9421L41.5759 21.6153C41.5931 18.2885 41.5931 18.2885 41.7248 18.0251Z" fill="#7230FF"/>
<path d="M41.5646 68.3048V65.0581L41.4673 59.8303C41.5589 59.8303 41.5646 59.5727 41.5646 56.6238C41.5646 53.5375 41.5704 53.4115 41.6791 53.108C41.828 52.7129 42.1659 52.3637 42.5838 52.169L42.9102 52.0144H45.0575H47.2047L47.5254 52.1633C47.9033 52.3408 48.2125 52.6442 48.39 53.0107L48.5217 53.2741L48.5389 56.5551C48.5503 59.4524 48.5618 59.8303 48.6419 59.8303L48.5503 65.0581V68.3048C48.5503 71.1334 48.5389 71.58 48.4587 71.8205C48.3327 72.187 47.8861 72.6622 47.5082 72.834C47.2047 72.9714 47.199 72.9714 45.0575 72.9714C42.916 72.9714 42.9102 72.9714 42.6068 72.834C42.2288 72.6622 41.7822 72.187 41.6562 71.8205C41.5761 71.58 41.5646 71.1334 41.5646 68.3048Z" fill="#FF7A00"/>
</g>
<defs>
<clipPath id="clip0_1_376">
<rect width="56.1145" height="56" fill="white" transform="translate(17 17)"/>
</clipPath>
</defs>
</svg>
