<svg width="33" height="26" viewBox="0 0 33 26" fill="none" xmlns="http://www.w3.org/2000/svg">
<path d="M27.607 2.63708C25.5356 1.66791 23.3208 0.963562 21.0052 0.5625C20.7208 1.07665 20.3886 1.76819 20.1595 2.3183C17.698 1.94812 15.2591 1.94812 12.8429 2.3183C12.6139 1.76819 12.2741 1.07665 11.9871 0.5625C9.66908 0.963562 7.45167 1.6705 5.38026 2.64221C1.20219 8.95581 0.0695851 15.1126 0.635889 21.182C3.407 23.2514 6.09255 24.5085 8.73277 25.3311C9.38465 24.4339 9.96605 23.4802 10.4669 22.475C9.513 22.1126 8.59937 21.6653 7.7361 21.146C7.96512 20.9763 8.18914 20.7989 8.40557 20.6164C13.6709 23.0791 19.3919 23.0791 24.5943 20.6164C24.8133 20.7989 25.0373 20.9763 25.2638 21.146C24.398 21.6678 23.4818 22.1151 22.5279 22.4776C23.0288 23.4802 23.6077 24.4365 24.2621 25.3336C26.9048 24.511 29.5929 23.254 32.364 21.182C33.0285 14.146 31.2289 8.04578 27.607 2.63708ZM11.1842 17.4494C9.60363 17.4494 8.3074 15.9738 8.3074 14.1769C8.3074 12.38 9.57595 10.9018 11.1842 10.9018C12.7926 10.9018 14.0887 12.3774 14.0611 14.1769C14.0636 15.9738 12.7926 17.4494 11.1842 17.4494ZM21.8157 17.4494C20.235 17.4494 18.9388 15.9738 18.9388 14.1769C18.9388 12.38 20.2073 10.9018 21.8157 10.9018C23.4239 10.9018 24.7202 12.3774 24.6925 14.1769C24.6925 15.9738 23.4239 17.4494 21.8157 17.4494Z" fill="#FFF"/>
</svg>
