<svg width="32" height="32" viewBox="0 0 32 32" fill="none" xmlns="http://www.w3.org/2000/svg">
<path d="M11.386 29.9751C11.8411 29.7792 12.1598 29.3267 12.1598 28.8V25.344C12.1598 25.2179 12.17 25.0867 12.186 24.9536C12.1771 24.9562 12.1687 24.9581 12.1598 24.96C12.1598 24.96 10.2398 24.96 9.85578 24.96C8.89578 24.96 8.06379 24.576 7.67979 23.808C7.23179 22.976 7.03978 21.568 5.88778 20.8C5.69578 20.672 5.82378 20.48 6.20778 20.48C6.59178 20.544 7.42378 21.056 7.93578 21.76C8.51178 22.464 9.08779 23.04 10.1118 23.04C11.7035 23.04 12.5566 22.96 13.0699 22.6848C13.6676 21.7959 14.4951 21.12 15.3598 21.12V21.104C11.7323 20.9875 9.41482 19.7818 8.33578 17.92C5.99018 17.9469 3.94795 18.1792 2.78251 18.3725C2.74539 18.1632 2.71339 17.9527 2.68587 17.7408C3.83595 17.5514 5.78538 17.3267 8.02666 17.2839C7.95498 17.1072 7.89291 16.9261 7.84043 16.7405C5.59339 16.6266 3.65419 16.7155 2.60075 16.8026C2.58795 16.5901 2.57067 16.3783 2.56811 16.1632C3.62347 16.0768 5.51019 15.9904 7.69963 16.0922C7.64907 15.7722 7.61643 15.4451 7.61643 15.1047C7.61643 14.0167 8.00042 12.8647 8.70442 11.9047C8.38442 10.8167 7.93642 8.51267 8.83242 7.68067C10.5604 7.68067 11.7764 8.51267 12.3524 9.02467C13.4398 8.57603 14.6558 8.32003 15.9998 8.32003C17.3438 8.32003 18.5598 8.57603 19.5838 9.02403C20.1598 8.51203 21.3758 7.68003 23.1038 7.68003C24.0638 8.57603 23.5518 10.88 23.2318 11.904C23.9358 12.864 24.3198 13.952 24.2558 15.104C24.2558 15.4138 24.227 15.7127 24.1854 16.0058C26.4247 15.8957 28.3627 15.984 29.4359 16.0711C29.4347 16.2867 29.4148 16.4973 29.4033 16.7104C28.3339 16.6221 26.3473 16.5312 24.0535 16.6535C23.9966 16.8685 23.9275 17.0778 23.8455 17.2807C26.115 17.3101 28.1111 17.5296 29.3163 17.7216C29.2887 17.9341 29.2567 18.1447 29.2196 18.3533C27.9959 18.1575 25.9102 17.9283 23.5371 17.9168C22.4715 19.7587 20.1963 20.96 16.6398 21.1002V21.12C18.3038 21.12 19.8398 23.616 19.8398 25.344V28.8C19.8398 29.3267 20.1585 29.7792 20.6135 29.9751C26.4766 28.0346 30.7198 22.505 30.7198 16C30.7198 7.88355 24.1169 1.28003 15.9998 1.28003C7.88267 1.28003 1.27979 7.88355 1.27979 16C1.27979 22.505 5.52299 28.0346 11.386 29.9751Z" fill="#7230FF"/>
</svg>
