<svg width="31" height="29" viewBox="0 0 31 29" fill="none" xmlns="http://www.w3.org/2000/svg">
<path d="M10.886 28.9751C11.3411 28.7792 11.6598 28.3267 11.6598 27.8V24.344C11.6598 24.2179 11.67 24.0868 11.686 23.9536C11.6771 23.9562 11.6687 23.9581 11.6598 23.96C11.6598 23.96 9.73979 23.96 9.35578 23.96C8.39578 23.96 7.56379 23.576 7.17978 22.808C6.73178 21.976 6.53978 20.568 5.38778 19.8C5.19579 19.672 5.32378 19.48 5.70779 19.48C6.09178 19.544 6.92378 20.056 7.43578 20.76C8.01178 21.464 8.58779 22.04 9.61178 22.04C11.2035 22.04 12.0566 21.96 12.5699 21.6848C13.1676 20.7959 13.9951 20.12 14.8598 20.12V20.104C11.2323 19.9875 8.91482 18.7818 7.83578 16.92C5.49018 16.9469 3.44795 17.1792 2.28251 17.3725C2.24539 17.1632 2.21339 16.9527 2.18587 16.7408C3.33595 16.5514 5.28538 16.3267 7.52666 16.2839C7.45498 16.1072 7.39291 15.9261 7.34043 15.7405C5.09339 15.6266 3.15419 15.7155 2.10075 15.8026C2.08795 15.5901 2.07067 15.3783 2.06811 15.1632C3.12347 15.0768 5.01019 14.9904 7.19963 15.0922C7.14907 14.7722 7.11643 14.4451 7.11643 14.1047C7.11643 13.0167 7.50042 11.8647 8.20442 10.9047C7.88442 9.81667 7.43642 7.51267 8.33242 6.68067C10.0604 6.68067 11.2764 7.51267 11.8524 8.02467C12.9398 7.57603 14.1558 7.32003 15.4998 7.32003C16.8438 7.32003 18.0598 7.57603 19.0838 8.02403C19.6598 7.51203 20.8758 6.68003 22.6038 6.68003C23.5638 7.57603 23.0518 9.88003 22.7318 10.904C23.4358 11.864 23.8198 12.952 23.7558 14.104C23.7558 14.4138 23.727 14.7127 23.6854 15.0058C25.9247 14.8957 27.8627 14.984 28.9359 15.0711C28.9347 15.2867 28.9148 15.4973 28.9033 15.7104C27.8339 15.6221 25.8473 15.5312 23.5535 15.6535C23.4966 15.8685 23.4275 16.0778 23.3455 16.2807C25.615 16.3101 27.6111 16.5296 28.8163 16.7216C28.7887 16.9341 28.7567 17.1447 28.7196 17.3533C27.4959 17.1575 25.4102 16.9283 23.0371 16.9168C21.9715 18.7587 19.6963 19.96 16.1398 20.1002V20.12C17.8038 20.12 19.3398 22.616 19.3398 24.344V27.8C19.3398 28.3267 19.6585 28.7792 20.1135 28.9751C25.9766 27.0346 30.2198 21.505 30.2198 15C30.2198 6.88355 23.6169 0.280029 15.4998 0.280029C7.38267 0.280029 0.779785 6.88355 0.779785 15C0.779785 21.505 5.02298 27.0346 10.886 28.9751Z" fill="white"/>
</svg>
