<svg width="90" height="90" viewBox="0 0 90 90" fill="none" xmlns="http://www.w3.org/2000/svg">
<rect width="90" height="90" rx="20" fill="#FFD3E8"/>
<path d="M42.3531 17.2188C38.3062 18.072 35.0031 20.5985 33.2422 24.197C32.0391 26.6579 31.875 27.7954 31.875 33.986V38.6782L32.3344 38.3282C33.8328 37.2017 35.8125 36.086 37.5078 35.4298L38.3828 35.0907L38.4375 31.8642C38.5031 28.3751 38.5141 28.3204 39.2141 26.9313C39.6297 26.1001 40.7562 24.9188 41.6203 24.4048C42.7141 23.7595 43.6437 23.5188 45 23.5188C46.3562 23.5188 47.2859 23.7595 48.3797 24.4048C49.6703 25.1813 50.9391 26.8001 51.3328 28.211C51.3984 28.4517 51.5078 29.1298 51.5625 29.7095C51.6719 30.8907 51.8797 31.4048 52.4484 31.9626C53.0281 32.5313 53.4766 32.6845 54.6469 32.7282C55.9484 32.7829 56.6156 32.586 57.2172 31.9954C58.0703 31.1751 58.2672 30.2345 57.9828 28.211C57.5562 25.2251 56.2547 22.6548 54.0891 20.5767C52.1969 18.761 50.075 17.6782 47.4172 17.1751C46.1375 16.9345 43.6 16.9563 42.3531 17.2188Z" fill="#05001A"/>
<path d="M43.5782 36.5344C41.4673 36.7859 40.286 37.0266 38.9845 37.4969C36.2501 38.4812 34.161 39.7937 32.1376 41.7844C27.511 46.3562 25.6954 52.9953 27.3251 59.3828C28.8454 65.3437 33.3517 70.1453 39.2579 72.1141C41.3251 72.8031 42.2876 72.9453 45.0001 72.9453C47.7126 72.9453 48.6751 72.8031 50.7423 72.1141C56.6485 70.1453 61.1548 65.3437 62.6751 59.3828C64.3048 53.0172 62.511 46.4437 57.9064 41.8281C55.1392 39.0719 51.5954 37.2672 47.7564 36.6984C46.8814 36.5672 44.2017 36.4578 43.5782 36.5344ZM46.3673 46.8047C47.3626 47.0891 48.4345 47.9312 48.9814 48.8828C49.7251 50.1625 49.8017 51.8031 49.1892 53.1047C48.8173 53.9141 48.2923 54.5484 47.6142 55.0078C47.122 55.3578 46.8595 55.7734 46.8595 56.2219C46.8595 56.3859 47.1767 58.0375 47.5704 59.9078C47.9642 61.7672 48.2595 63.375 48.2267 63.4844C48.1064 63.8672 47.6907 63.9219 45.0001 63.9219C42.3095 63.9219 41.8939 63.8672 41.7735 63.4844C41.7407 63.375 42.036 61.7672 42.4298 59.9078C42.8235 58.0375 43.1407 56.375 43.1407 56.2C43.1298 55.7297 42.9001 55.3906 42.2439 54.8984C41.5548 54.3734 40.811 53.3125 40.5704 52.525C40.4829 52.2078 40.4064 51.6391 40.4064 51.2344C40.4064 49.9 40.8876 48.7953 41.8829 47.8547C43.1298 46.6734 44.6282 46.3234 46.3673 46.8047Z" fill="#FF268E"/>
</svg>
