<svg width="78" height="50" viewBox="0 0 78 50" fill="none" xmlns="http://www.w3.org/2000/svg">
<g clip-path="url(#clip0_1_263)">
<path fill-rule="evenodd" clip-rule="evenodd" d="M57.9421 21.0129C55.5865 20.7318 54.0896 18.3573 54.0896 15.985C54.0896 7.55138 47.2528 0.7146 38.8192 0.7146C30.3856 0.7146 23.5488 7.55138 23.5488 15.985C23.5488 16.1657 23.552 16.3457 23.5582 16.5249C23.5652 16.7269 23.3919 16.8904 23.1912 16.8665C15.1599 15.9082 8.09473 22.1804 8.09473 30.2688C8.09473 37.7232 14.1377 43.7661 21.5921 43.7661H61.7455C67.8816 43.7661 72.8558 38.7919 72.8558 32.6558C72.8558 27.0289 68.6491 22.2904 63.0619 21.6238L57.9421 21.0129Z" fill="#7230FF"/>
<circle cx="38.8197" cy="15.985" r="13.4306" fill="#FF7A00" stroke="#EDE8FF" stroke-width="3.67961"/>
<path d="M47.2383 26.8889L54.826 34.9352" stroke="#EDE8FF" stroke-width="3.67961" stroke-linecap="round"/>
</g>
<defs>
<clipPath id="clip0_1_263">
<rect width="77.6398" height="48.5708" fill="white" transform="translate(0 0.7146)"/>
</clipPath>
</defs>
</svg>
