<svg width="90" height="90" viewBox="0 0 90 90" fill="none" xmlns="http://www.w3.org/2000/svg">
<rect width="90" height="90" rx="20" fill="#FFDFDF"/>
<path d="M34.5442 17.062C31.4469 17.456 28.5903 18.8459 26.281 21.0896C24.1687 23.1362 22.7897 25.5769 22.0564 28.5538C21.7828 29.6811 21.7828 29.8015 21.739 34.4311L21.6952 39.1701H19.3421H17V52.5772V65.9844H23.9827H30.9544L37.9808 58.947L45.0073 51.9205L45.051 48.5277C45.0948 45.8682 45.1386 44.9598 45.2809 44.314C46.0361 40.9978 47.7653 38.0318 50.1403 35.9852L50.8298 35.3942L50.7751 32.5486C50.7422 30.1845 50.6985 29.5498 50.5124 28.7617C49.7791 25.6425 48.3563 23.1253 46.1455 20.9911C44.1536 19.0758 41.702 17.7952 38.9549 17.2261C37.9042 17.0182 35.6168 16.9306 34.5442 17.062ZM38.2107 25.5112C40.1807 26.3211 41.702 27.7767 42.4243 29.5498C42.6542 30.1189 42.6651 30.294 42.698 34.6499L42.7308 39.1701H36.2735H29.8052V34.9236C29.8052 31.5088 29.838 30.5567 29.9694 30.0532C30.5057 27.9956 32.3881 26.146 34.7303 25.358C35.6387 25.0625 37.2804 25.1281 38.2107 25.5112Z" fill="#05001A"/>
<path d="M58.5347 34.5735C55.9079 34.9237 53.3141 36.1714 51.3659 38.0429C50.1511 39.1921 49.5054 40.0786 48.7283 41.6327C47.1851 44.752 46.9553 48.2652 48.0935 51.5376L48.3233 52.2271L41.4173 59.1332L34.5112 66.0392V68.3157C34.5112 69.6181 34.566 70.8001 34.6316 71.0737C34.7848 71.6976 35.354 72.3543 36.0216 72.6826C36.4922 72.9124 36.7002 72.9343 38.4513 72.9672L40.3666 73L40.9686 72.398C41.5377 71.818 41.5924 71.7851 42.1177 71.7851C42.6431 71.7851 42.7087 71.7523 43.245 71.2051L43.8142 70.625V69.4539V68.2829H44.9962H46.1782L46.7473 67.7028L47.3164 67.1227V65.9517V64.7806H49.1442H50.961L51.5301 64.3428C52.6136 63.5001 53.0733 62.6136 53.1937 61.1032L53.2594 60.1839H54.3538C55.4373 60.1839 55.4702 60.1729 55.8094 59.8446L56.1597 59.5053L57.09 59.7461C59.9246 60.4465 63.0876 60.1182 65.7472 58.8377C72.5438 55.5433 75.061 47.1707 71.1866 40.7243C68.5599 36.3574 63.5473 33.9168 58.5347 34.5735ZM66.3819 39.4767C67.0386 39.805 67.6953 40.4617 68.0236 41.1183C68.2316 41.5452 68.2754 41.8079 68.2754 42.6725C68.2754 43.6137 68.2425 43.7669 67.958 44.2923C67.3122 45.4634 66.1849 46.1091 64.8278 46.12C64.1492 46.12 63.8975 46.0653 63.3941 45.8136C61.829 45.0475 61.0191 43.3292 61.4897 41.7422C61.8071 40.6258 62.4528 39.8816 63.5145 39.3891C64.204 39.0717 65.6487 39.1155 66.3819 39.4767ZM53.8285 53.7265L54.3757 54.2738L46.1891 62.4603L38.0135 70.636L37.4444 70.0559L36.8643 69.4868L45.0181 61.333C49.5054 56.8458 53.1937 53.1793 53.2265 53.1793C53.2594 53.1793 53.533 53.431 53.8285 53.7265Z" fill="#FF7A00"/>
</svg>
