<?xml version="1.0" standalone="no"?>
<!DOCTYPE svg PUBLIC "-//W3C//DTD SVG 20010904//EN"
 "http://www.w3.org/TR/2001/REC-SVG-20010904/DTD/svg10.dtd">
<svg version="1.0" xmlns="http://www.w3.org/2000/svg"
 width="800.000000pt" height="665.000000pt" viewBox="0 0 800.000000 665.000000"
 preserveAspectRatio="xMidYMid meet">

<g transform="translate(0.000000,665.000000) scale(0.100000,-0.100000)"
fill="#000000" stroke="none">
<path d="M2126 6498 c-19 -30 -70 -204 -87 -298 -17 -95 -17 -356 -1 -435 7
-33 22 -89 33 -124 l20 -64 -29 -31 c-100 -104 -218 -313 -270 -476 -47 -150
-62 -260 -62 -469 0 -264 29 -488 88 -678 l20 -63 -317 0 c-344 0 -541 -10
-811 -41 -180 -20 -447 -63 -457 -72 -20 -21 26 -19 168 4 180 30 384 54 587
69 208 15 616 24 734 15 l108 -7 20 -46 c42 -94 43 -92 -46 -92 -325 0 -956
-83 -1344 -176 -214 -51 -220 -53 -214 -67 4 -10 29 -7 112 15 343 90 878 171
1277 193 61 3 144 8 186 11 l76 6 68 -104 c156 -235 394 -413 706 -528 159
-59 439 -123 631 -146 l57 -6 -59 -55 c-75 -69 -135 -164 -176 -278 -30 -85
-34 -91 -75 -112 -137 -69 -373 -90 -514 -46 -142 45 -255 140 -366 309 -38
57 -96 127 -136 165 -129 121 -306 187 -429 160 -126 -28 -102 -98 63 -185
132 -69 218 -160 313 -328 131 -230 231 -338 385 -414 127 -62 186 -76 353
-81 127 -5 225 3 336 24 l29 6 -6 -394 -7 -394 -30 -62 c-36 -72 -68 -101
-161 -149 -69 -34 -89 -55 -89 -93 0 -37 37 -51 136 -51 228 0 412 100 476
258 22 56 23 67 28 542 6 456 7 489 27 547 21 63 57 123 74 123 6 0 9 -266 7
-728 l-3 -727 -23 -43 c-12 -23 -42 -56 -65 -73 -48 -35 -66 -62 -67 -101 -1
-89 145 -91 313 -7 71 36 126 85 165 147 63 99 62 84 62 877 0 547 3 724 12
733 16 16 65 15 75 -1 4 -6 10 -349 13 -762 l5 -750 24 -48 c52 -105 153 -186
291 -233 135 -45 220 -22 220 62 0 19 -14 39 -51 73 -58 52 -82 93 -98 169
-14 68 -16 1402 -1 1402 14 0 56 -77 76 -140 15 -48 18 -114 24 -530 5 -464 6
-476 28 -532 63 -157 248 -258 471 -258 95 0 131 15 131 53 0 36 -26 64 -92
99 -72 38 -127 103 -158 185 -21 56 -22 78 -30 633 -9 640 -6 618 -81 770 -32
64 -60 102 -118 161 l-77 76 106 12 c258 29 567 111 752 200 245 116 445 307
549 524 14 28 30 47 40 47 69 0 410 -24 573 -40 343 -35 712 -98 978 -168 83
-22 108 -25 112 -15 6 14 0 16 -214 67 -368 89 -866 157 -1267 173 -89 3 -167
9 -172 13 -7 4 -4 26 10 67 l20 61 147 7 c157 8 508 1 737 -15 230 -17 480
-48 739 -93 5 -1 10 3 13 10 5 14 -43 24 -267 57 -325 48 -462 57 -923 63
-375 5 -437 8 -433 20 11 29 46 221 58 323 7 59 13 219 13 365 0 212 -3 276
-18 349 -53 259 -159 474 -334 672 -48 55 -52 64 -44 87 6 15 18 77 27 139 27
182 10 369 -52 578 -38 125 -42 130 -117 130 -191 -1 -498 -118 -773 -295
l-87 -56 -126 25 c-256 51 -356 60 -671 61 -232 0 -324 -4 -430 -18 -134 -19
-323 -54 -411 -78 -45 -12 -46 -12 -105 28 -300 203 -627 333 -835 333 -50 0
-61 -3 -73 -22z m1390 -1694 c290 -21 615 -21 909 1 428 31 649 14 802 -63
175 -89 351 -316 397 -512 9 -36 16 -111 16 -170 0 -204 -33 -368 -103 -515
-142 -295 -423 -438 -947 -484 -334 -30 -942 -22 -1239 14 -554 69 -876 270
-995 621 -39 117 -51 200 -51 359 0 131 3 159 24 220 32 95 80 180 153 270
129 162 258 232 488 268 64 10 348 5 546 -9z m-1626 -1869 c16 -19 6 -45 -18
-45 -23 0 -56 35 -47 49 9 16 51 13 65 -4z m104 -77 c46 -20 46 -68 1 -68 -33
0 -63 44 -45 65 15 18 13 18 44 3z m149 -159 c37 -51 -8 -94 -55 -52 -18 16
-25 63 -11 77 14 13 46 1 66 -25z m141 -172 c16 -21 18 -32 10 -45 -28 -44
-94 -9 -94 49 0 28 2 30 32 27 20 -2 38 -13 52 -31z m166 -144 c22 -29 22 -41
-2 -56 -39 -25 -116 35 -88 68 20 24 66 18 90 -12z m626 -9 c-3 -9 -6 -27 -6
-40 0 -26 -27 -33 -48 -12 -27 27 -6 68 36 68 18 0 23 -4 18 -16z m-410 -55
c24 -27 8 -53 -35 -57 -37 -4 -71 20 -71 49 0 34 77 40 106 8z m222 5 c26 -18
27 -27 6 -48 -18 -19 -75 -21 -92 -4 -44 44 32 90 86 52z"/>
<path d="M3021 4329 c-184 -94 -201 -463 -29 -602 51 -41 127 -48 186 -18 150
77 197 381 83 538 -69 95 -156 125 -240 82z m24 -114 c30 -29 32 -64 5 -93
-26 -28 -67 -28 -97 0 -30 28 -29 63 2 93 31 32 59 32 90 0z"/>
<path d="M4819 4327 c-169 -90 -202 -422 -56 -576 165 -174 398 40 357 329
-17 122 -74 215 -155 251 -54 25 -93 24 -146 -4z m51 -117 c24 -24 25 -48 4
-78 -32 -46 -114 -17 -114 40 0 26 36 58 65 58 14 0 34 -9 45 -20z"/>
<path d="M3921 3643 c-12 -10 -24 -34 -27 -54 -5 -28 -1 -41 18 -63 50 -58
148 -22 148 55 0 65 -88 104 -139 62z"/>
<path d="M3775 3380 c-11 -18 39 -93 83 -125 39 -27 52 -30 116 -30 63 0 78 4
115 28 46 31 81 80 81 115 0 36 -32 26 -58 -18 -26 -46 -84 -80 -137 -80 -53
0 -111 34 -137 80 -22 38 -50 51 -63 30z"/>
</g>
</svg>
